<?xml version="1.0" encoding="UTF-8" standalone="no"?>
<svg
   xmlns:dc="http://purl.org/dc/elements/1.1/"
   xmlns:cc="http://creativecommons.org/ns#"
   xmlns:rdf="http://www.w3.org/1999/02/22-rdf-syntax-ns#"
   xmlns:svg="http://www.w3.org/2000/svg"
   xmlns="http://www.w3.org/2000/svg"
   xmlns:sodipodi="http://sodipodi.sourceforge.net/DTD/sodipodi-0.dtd"
   xmlns:inkscape="http://www.inkscape.org/namespaces/inkscape"
   xml:space="preserve"
   viewBox="0 0 150 38"
   height="38"
   width="150"
   y="0px"
   x="0px"
   id="Calque_1"
   version="1.1"
   inkscape:version="0.91 r13725"
   sodipodi:docname="colissimo_logo.svg"><sodipodi:namedview
     pagecolor="#ffffff"
     bordercolor="#666666"
     borderopacity="1"
     objecttolerance="10"
     gridtolerance="10"
     guidetolerance="10"
     inkscape:pageopacity="0"
     inkscape:pageshadow="2"
     inkscape:window-width="1858"
     inkscape:window-height="1057"
     id="namedview26"
     showgrid="false"
     inkscape:zoom="2.906896"
     inkscape:cx="37.682992"
     inkscape:cy="-39.908722"
     inkscape:window-x="54"
     inkscape:window-y="-8"
     inkscape:window-maximized="1"
     inkscape:current-layer="Calque_1" /><metadata
     id="metadata48"><rdf:RDF><cc:Work
         rdf:about=""><dc:format>image/svg+xml</dc:format><dc:type
           rdf:resource="http://purl.org/dc/dcmitype/StillImage" /><dc:title></dc:title></cc:Work></rdf:RDF></metadata><defs
     id="defs46" /><style
     id="style3"
     type="text/css">
	.st0{fill:url(#SVGID_1_);}
	.st1{fill:#3C3C3B;}
</style><linearGradient
     y2="202.2406"
     x2="707.92603"
     y1="636.44751"
     x1="8.4400997"
     gradientUnits="userSpaceOnUse"
     id="SVGID_1_"
     gradientTransform="translate(0,-809)"><stop
       id="stop6"
       style="stop-color:#EC6608"
       offset="0" /><stop
       id="stop8"
       style="stop-color:#ED6C07"
       offset="0.168" /><stop
       id="stop10"
       style="stop-color:#EF7A07"
       offset="0.3875" /><stop
       id="stop12"
       style="stop-color:#F39107"
       offset="0.6356" /><stop
       id="stop14"
       style="stop-color:#F9AF06"
       offset="0.9028" /><stop
       id="stop16"
       style="stop-color:#FBBA07"
       offset="1" /></linearGradient><g
     id="g3354"
     transform="matrix(0.04486389,0,0,0.04486389,0.67175024,36.301156)"><path
       style="fill:url(#SVGID_1_)"
       inkscape:connector-curvature="0"
       class="st0"
       d="m 505,-431 c -3.4,2 -8.8,1.8 -12.1,-0.2 l -19.7,-11.7 c -1.6,-1 -3.1,-2.6 -4.2,-4.5 -0.1,-0.1 -0.1,-0.2 -0.2,-0.3 -1.3,-2 -2,-4.2 -2,-6.2 l -0.5,-22.9 c -0.1,-3.9 2.4,-8.6 5.8,-10.6 L 708.5,-625.1 376.8,-806 c -3.7,-2 -8.5,-3 -13.3,-3 -4.8,0 -9.7,1 -13.3,3 l -331.8,180.8 371.7,216.4 c 3.4,1.9 6.1,6.4 6.1,10.4 l 0,315.7 c 0,4 -2.8,8.5 -6.3,10.4 l -20,11.1 c -1.7,0.9 -3.8,1.4 -6,1.4 -0.1,0 -0.3,0 -0.4,0 -2.4,0.1 -4.6,-0.4 -6.4,-1.4 L 337,-72.4 c -3.4,-1.8 -6.2,-6.4 -6.2,-10.4 l 0,-281.4 c -0.2,-2.1 -1.7,-4.6 -3.3,-5.5 L 0,-560.3 0,-186.9 c 0,8.4 5.9,18.7 13.1,22.9 L 350.4,34.9 c 3.6,2.1 8.4,3.2 13.1,3.1 4.7,0 9.5,-1 13.1,-3.1 L 713.9,-164 c 7.2,-4.3 13.1,-14.5 13.1,-22.9 l 0,-373.4 -222,129.3 z"
       id="path18" /><g
       transform="translate(0,-809)"
       id="g20"><path
         style="fill:#3c3c3b"
         inkscape:connector-curvature="0"
         class="st1"
         d="m 1201.3,340.4 c -25.9,-15.7 -51.9,-22.5 -86.7,-22.5 -92.9,0 -160.5,63.5 -160.5,159.8 0,95.6 62.9,158.5 161.2,158.5 31.4,0 61.5,-6.2 88.8,-22.5 l 0,-77.2 c -23.2,17.8 -48.5,27.3 -77.2,27.3 -55.3,0 -90.2,-35.5 -90.2,-87.4 0,-54.6 36.2,-86 86.8,-86 28,0 52.6,7.5 77.8,28 l 0,-78 z"
         id="path22" /><path
         style="fill:#3c3c3b"
         inkscape:connector-curvature="0"
         class="st1"
         d="m 1703.2,559.5 -0.3,0 c -29.9,-2.5 -45.4,-19.9 -45.4,-51 l 0,-322.2 -81.8,0 0,327.5 c 0,89.3 50,118.5 127.5,118.9 l 0,-73.2 z"
         id="path24" /><path
         style="fill:#3c3c3b"
         inkscape:connector-curvature="0"
         class="st1"
         d="m 1384.6,317.9 c -90.9,0 -159.2,64.2 -159.2,159.1 0,94.9 68.3,159.2 159.2,159.2 90.8,0 159.8,-64.2 159.8,-159.2 0,-94.9 -69,-159.1 -159.8,-159.1 z m 0,247.3 c -44.4,0 -76.5,-33.5 -76.5,-88.1 0,-54.6 32.1,-88.1 76.5,-88.1 44.4,0 76.5,33.5 76.5,88.1 0,54.6 -32.1,88.1 -76.5,88.1 z"
         id="path26" /><path
         style="fill:#3c3c3b"
         inkscape:connector-curvature="0"
         class="st1"
         d="m 1874,608.2 c 24.6,15.7 62.1,24.6 99,24.6 71,0 120.9,-30.1 120.9,-96.3 0,-54.6 -26.6,-84.7 -105.2,-99.1 -28.7,-6.8 -39.6,-15 -39.6,-30.7 0,-14.3 11.6,-25.9 38.9,-25.9 31.4,0 58,10.2 86.7,29.4 l 0,-73.2 c -26.6,-15 -53.3,-22.5 -89.5,-22.5 -65.5,0 -116.1,30.7 -116.1,97.7 0,55.3 28.7,82.6 97.6,95 33.5,6.8 46.5,14.3 46.5,32.8 0,19.1 -17.1,26.6 -42.3,26.6 -30.1,0 -68.3,-13 -97,-34.1 l 0,75.7 z"
         id="path28" /><polygon
         style="fill:#3c3c3b"
         class="st1"
         points="1741.1,629.4 1823.3,629.4 1823.3,603.2 1823.3,324 1741.1,324 "
         id="polygon30" /><path
         style="fill:#3c3c3b"
         inkscape:connector-curvature="0"
         class="st1"
         d="m 1782.2,202.2 c -22.7,0 -41.1,18.4 -41.1,41.1 0,22.7 18.4,41.1 41.1,41.1 22.7,0 41.1,-18.4 41.1,-41.1 0,-22.8 -18.4,-41.1 -41.1,-41.1"
         id="path32" /><path
         style="fill:#3c3c3b"
         inkscape:connector-curvature="0"
         class="st1"
         d="m 3153.7,317.9 c -90.8,0 -159.2,64.2 -159.2,159.1 0,94.9 68.3,159.2 159.2,159.2 90.8,0 159.8,-64.2 159.8,-159.2 0,-94.9 -69,-159.1 -159.8,-159.1 z m 0,247.3 c -44.4,0 -76.5,-33.5 -76.5,-88.1 0,-54.6 32.1,-88.1 76.5,-88.1 44.4,0 76.5,33.5 76.5,88.1 0,54.6 -32.1,88.1 -76.5,88.1 z"
         id="path34" /><path
         style="fill:#3c3c3b"
         inkscape:connector-curvature="0"
         class="st1"
         d="m 2121.4,608.2 c 24.6,15.7 62.1,24.6 99,24.6 71.1,0 120.9,-30.1 120.9,-96.3 0,-54.6 -26.6,-84.7 -105.2,-99.1 -28.7,-6.8 -39.6,-15 -39.6,-30.7 0,-14.3 11.6,-25.9 39,-25.9 31.4,0 58,10.2 86.7,29.4 l 0,-73.2 c -26.6,-15 -53.3,-22.5 -89.5,-22.5 -65.5,0 -116.1,30.7 -116.1,97.7 0,55.3 28.7,82.6 97.6,95 33.5,6.8 46.5,14.3 46.5,32.8 0,19.1 -17.1,26.6 -42.3,26.6 -30.1,0 -68.3,-13 -97,-34.1 l 0,75.7 z"
         id="path36" /><polygon
         style="fill:#3c3c3b"
         class="st1"
         points="2376.5,629.4 2458.7,629.4 2458.7,603.2 2458.7,324 2376.5,324 "
         id="polygon38" /><path
         style="fill:#3c3c3b"
         inkscape:connector-curvature="0"
         class="st1"
         d="m 2417.6,202.2 c -22.7,0 -41.1,18.4 -41.1,41.1 0,22.7 18.4,41.1 41.1,41.1 22.7,0 41.1,-18.4 41.1,-41.1 0,-22.8 -18.4,-41.1 -41.1,-41.1"
         id="path40" /><path
         style="fill:#3c3c3b"
         inkscape:connector-curvature="0"
         class="st1"
         d="m 2878.3,438.9 c 0,-32.1 -14.3,-48.5 -46.4,-48.5 -21.8,0 -43.7,4.8 -57.3,11.6 2.7,6.8 6.1,17.1 6.1,31.4 l 0,195.9 -82.6,0 0,-190.4 c 0,-32.1 -15,-48.5 -46.4,-48.5 -19.8,0 -34.8,2.7 -51.2,7.5 l 0,231.4 -81.9,0 0,-284.5 c 42.3,-16.4 92.1,-26.6 137.2,-26.6 35.5,0 65.5,8.9 84,23.9 27.3,-12.3 58.7,-23.9 103.1,-23.9 72.4,0 118.1,28 118.1,117.4 l 0,193.8 -82.6,0 0,-190.5 z"
         id="path42" /></g></g></svg>